<svg xmlns="http://www.w3.org/2000/svg" width="290.811" height="295.39" viewBox="0 0 290.811 295.39">
  <defs>
    <style>
      .cls-1 {
        fill: #707070;
      }
    </style>
  </defs>
  <g id="_69656" data-name="69656" transform="translate(-29.996 -7.961)">
    <path id="Path_23" data-name="Path 23" class="cls-1" d="M299.32,351.791c-11.866,0-21.489,8.9-21.489,19.886v31H72.968v-31c0-10.982-9.62-19.886-21.486-19.886S30,360.694,30,371.677v50.882c0,10.982,9.62,19.888,21.486,19.888H299.321c11.866,0,21.486-8.906,21.486-19.888V371.677C320.807,360.694,311.187,351.791,299.32,351.791Z" transform="translate(0 -139.096)"/>
    <path id="Path_24" data-name="Path 24" class="cls-1" d="M202.936,233.854a9.709,9.709,0,0,0,12.969,0l75.3-69.69a6.722,6.722,0,0,0,1.659-7.741,7.691,7.691,0,0,0-7.085-4.377H250.423V23.48c0-8.576-7.5-15.519-16.766-15.519H185.2c-9.263,0-16.766,6.943-16.766,15.519V152.045H133.062a7.688,7.688,0,0,0-7.082,4.377,6.726,6.726,0,0,0,1.657,7.741Z" transform="translate(-34.022)"/>
  </g>
</svg>
