<?xml version="1.0" encoding="utf-8"?>
<!-- Generator: Adobe Illustrator 21.0.2, SVG Export Plug-In . SVG Version: 6.00 Build 0)  -->
<svg version="1.1" xmlns="http://www.w3.org/2000/svg" xmlns:xlink="http://www.w3.org/1999/xlink" x="0px" y="0px"
	 viewBox="0 0 720 720" style="enable-background:new 0 0 720 720;" xml:space="preserve">
<style type="text/css">
	.st0{display:none;}
	.st1{display:inline;fill:#28C0E8;}
	.st2{display:inline;fill:#231F20;}
	.st3{display:inline;fill:#EC1C24;}
	.st4{display:inline;fill:#9F5DA4;}
	.st5{fill:#0071BB;}
</style>
<g id="Layer_1" class="st0">
	<path class="st1" d="M718.8,359.1c0,198.3-160.7,359.1-359.1,359.1C161.5,718.2,0.6,557.4,0.6,359.1C0.6,160.8,161.5,0,359.7,0
		C558.1,0,718.8,160.8,718.8,359.1"/>
	<polygon class="st2" points="248.9,538.7 248.9,179 485.8,179 485.8,241.6 319.1,241.6 319.1,326 461,326 461,388.6 319.1,388.6 
		319.1,476.1 485.8,476.1 485.8,538.7 	"/>
</g>
<g id="Layer_2" class="st0">
	<path class="st3" d="M720,360c0,198.8-161.1,360-360,360C161.3,720,0,558.8,0,360C0,161.2,161.3,0,360,0C558.9,0,720,161.2,720,360
		"/>
</g>
<g id="Layer_3" class="st0">
	<path class="st4" d="M720,360c0,198.8-161.1,360-360,360C161.3,720,0,558.7,0,360C0,161.2,161.3,0,360,0C558.9,0,720,161.2,720,360
		"/>
</g>
<g id="Layer_4">
	<path class="st5" d="M720,360c0,198.8-161.1,360-360,360C161.3,720,0,558.8,0,360C0,161.2,161.3,0,360,0C558.9,0,720,161.2,720,360
		"/>
</g>
</svg>
