<svg width="14" height="17" viewBox="0 0 14 17" fill="none" xmlns="http://www.w3.org/2000/svg">
<path d="M8.5 11.0488V16.0488H5.5V11.0488H8.5Z" fill="#575757"/>
<path d="M7 0C8.1097 0 9.04121 0.79858 10.9043 2.39551L11.9043 3.25293C12.9351 4.13648 13.4511 4.57814 13.7256 5.1748C14 5.77154 14 6.45084 14 7.80859V12.0488C14 13.9344 13.9998 14.8771 13.4141 15.4629C12.8825 15.9944 12.0571 16.0404 10.5 16.0449V11.0488C10.5 9.94426 9.60457 9.04883 8.5 9.04883H5.5C4.39543 9.04883 3.5 9.94426 3.5 11.0488V16.0449C1.94288 16.0404 1.11748 15.9944 0.585938 15.4629C0.000157475 14.8771 0 13.9344 0 12.0488V7.80859C0 6.45084 -4.72367e-05 5.77154 0.274414 5.1748C0.548892 4.57814 1.0649 4.13648 2.0957 3.25293L3.0957 2.39551C4.95879 0.79858 5.8903 0 7 0Z" fill="#575757"/>
</svg>
