<svg xmlns="http://www.w3.org/2000/svg" width="295.191" height="295.608" viewBox="0 0 295.191 295.608">
  <defs>
    <style>
      .cls-1 {
        opacity: 0.862;
      }

      .cls-2 {
        fill: #6f7172;
      }
    </style>
  </defs>
  <g id="maintenance" class="cls-1">
    <g id="Layer_1" data-name="Layer 1">
      <path id="Path_13" data-name="Path 13" class="cls-2" d="M223.462,0c2.848.369,5.71.672,8.547,1.108a69.373,69.373,0,0,1,17.419,5.134c-.558.6-.982,1.09-1.437,1.548L196.037,59.758c-2.585,2.586-2.585,3.793-.063,6.309L229.4,99.49c2.984,2.981,3.93,2.955,6.966-.074Q262,73.753,287.66,48.1c.51-.51,1.053-.994,1.706-1.61a71.56,71.56,0,0,1,5.068,18.324c2.541,19.255-1.248,37.1-12.266,53.188a74.871,74.871,0,0,1-71.94,32.134,13.435,13.435,0,0,0-12.048,4q-35.458,35.547-71.017,71.016L68.8,283.515a39.038,39.038,0,0,1-23.982,11.842A39.79,39.79,0,0,1,.7,262.314c-.211-1.381-.462-2.755-.7-4.133V253.01a3.258,3.258,0,0,0,.314-.824,40.18,40.18,0,0,1,12.244-25.534q41.483-41.412,82.906-82.9,23.307-23.306,46.609-46.613a12.028,12.028,0,0,0,3.694-10.711,74.349,74.349,0,0,1-.137-20.606,73.554,73.554,0,0,1,20.141-42c11.867-12.34,26.188-20.182,43.215-22.782C211.594.632,214.228.34,216.813,0ZM39,281.979a25.233,25.233,0,1,0-25.249-25.441A25.212,25.212,0,0,0,39,281.979Z"/>
    </g>
  </g>
</svg>
