<svg width="18" height="15" viewBox="0 0 18 15" fill="none" xmlns="http://www.w3.org/2000/svg">
<path d="M12.8232 4C12.8232 6.20914 11.0324 8 8.82321 8C6.61407 8 4.82321 6.20914 4.82321 4C4.82321 1.79086 6.61407 0 8.82321 0C11.0324 0 12.8232 1.79086 12.8232 4Z" fill="#575757"/>
<path d="M16.8232 4C16.8232 5.65685 15.4801 7 13.8232 7C12.1664 7 10.8232 5.65685 10.8232 4C10.8232 2.34315 12.1664 1 13.8232 1C15.4801 1 16.8232 2.34315 16.8232 4Z" fill="#575757"/>
<path d="M6.82321 4C6.82321 5.65685 5.48007 7 3.82321 7C2.16636 7 0.823214 5.65685 0.823214 4C0.823214 2.34315 2.16636 1 3.82321 1C5.48007 1 6.82321 2.34315 6.82321 4Z" fill="#575757"/>
<path d="M13.8233 8C16.2711 8.00005 17.252 10.4456 17.6202 11.916C17.7639 12.4899 17.3095 13 16.7179 13H14.3917C13.9886 11.4903 13.2088 9.77805 11.7013 8.7998C12.2434 8.32097 12.9371 8 13.8233 8Z" fill="#575757"/>
<path d="M3.82368 8C4.70929 8.00011 5.40187 8.32144 5.94379 8.7998C4.43685 9.77817 3.6573 11.4906 3.25434 13H0.928168C0.336557 13 -0.116917 12.4899 0.0268012 11.916C0.395081 10.4456 1.37589 8 3.82368 8Z" fill="#575757"/>
<path d="M8.82321 9C12.5319 9 13.4897 12.301 13.7371 14.0061C13.8164 14.5526 13.3755 15 12.8232 15H4.82321C4.27093 15 3.83005 14.5526 3.90935 14.0061C4.15673 12.301 5.11456 9 8.82321 9Z" fill="#575757"/>
</svg>
