<svg width="69" height="48" viewBox="0 0 69 48" fill="none" xmlns="http://www.w3.org/2000/svg">
<path fill-rule="evenodd" clip-rule="evenodd" d="M24.9999 15C29.4182 15 32.9999 18.5817 32.9999 23C32.9999 27.4183 29.4182 31 24.9999 31C23.151 31 21.4504 30.3706 20.0956 29.3174L16.707 32.707C16.3164 33.0976 15.6834 33.0976 15.2929 32.707C14.9024 32.3165 14.9024 31.6835 15.2929 31.293L18.6816 27.9033C17.6288 26.5488 16.9999 24.8484 16.9999 23C16.9999 18.5817 20.5816 15 24.9999 15ZM24.9999 17C21.6862 17 18.9999 19.6863 18.9999 23C18.9999 26.3137 21.6862 29 24.9999 29C28.3136 29 30.9999 26.3137 30.9999 23C30.9999 19.6863 28.3136 17 24.9999 17Z" fill="#3B81B4"/>
</svg>
